<?xml version="1.0" encoding="iso-8859-1"?>
<!-- Generator: Adobe Illustrator 19.0.0, SVG Export Plug-In . SVG Version: 6.00 Build 0)  -->
<svg version="1.1" id="Capa_1" xmlns="http://www.w3.org/2000/svg" xmlns:xlink="http://www.w3.org/1999/xlink" x="0px" y="0px"
	 viewBox="0 0 512 512" style="enable-background:new 0 0 512 512;" xml:space="preserve">
<path style="fill:#F04D4E;" d="M23.273,407.273c6.982-4.655,15.127-9.309,23.273-10.473V37.236
	c-13.964,4.655-23.273,17.455-23.273,32.582V407.273z"/>
<path style="fill:#014463;" d="M11.636,465.455C4.655,465.455,0,460.8,0,453.818v-384c0-32.582,25.6-58.182,58.182-58.182
	c6.982,0,11.636,4.655,11.636,11.636v384c0,6.982-4.655,11.636-11.636,11.636c-19.782,0-34.909,15.127-34.909,34.909
	C23.273,460.8,18.618,465.455,11.636,465.455z M46.545,37.236c-13.964,4.655-23.273,17.455-23.273,32.582v337.455
	c6.982-4.655,15.127-9.309,23.273-10.473V37.236z"/>
<path style="fill:#D98B37;" d="M69.818,34.909v360.727h267.636c6.982,0,11.636-4.655,11.636-11.636V46.545
	c0-6.982-4.655-11.636-11.636-11.636h-11.636v69.818c0,3.491-2.327,8.145-5.818,10.473s-8.145,2.327-11.636,0l-40.727-20.945
	L225.745,115.2c-3.491,2.327-8.145,1.164-11.636,0c-2.327-2.327-4.655-6.982-4.655-10.473V34.909H69.818z"/>
<path style="fill:#ECEFF9;" d="M58.182,488.727h279.273c6.982,0,11.636-4.655,11.636-11.636v-60.509
	c-3.491,1.164-6.982,2.327-11.636,2.327H58.182c-19.782,0-34.909,15.127-34.909,34.909S38.4,488.727,58.182,488.727z"/>
<path style="fill:#CEDAE6;" d="M34.909,465.455c0-19.782,15.127-34.909,34.909-34.909h279.273v-13.964
	c-3.491,1.164-6.982,2.327-11.636,2.327H58.182c-19.782,0-34.909,15.127-34.909,34.909c0,12.8,6.982,23.273,16.291,30.255
	C37.236,478.255,34.909,472.436,34.909,465.455z"/>
<g>
	<path style="fill:#014463;" d="M337.455,11.636h-23.273c-6.982,0-11.636,4.655-11.636,11.636v62.836l-30.255-15.127
		c-3.491-1.164-6.982-1.164-10.473,0l-29.091,15.127V23.273c0-6.982-4.655-11.636-11.636-11.636H58.182
		c-6.982,0-11.636,4.655-11.636,11.636V396.8C19.782,402.618,0,425.891,0,453.818C0,486.4,25.6,512,58.182,512h279.273
		c19.782,0,34.909-15.127,34.909-34.909V46.545C372.364,26.764,357.236,11.636,337.455,11.636z M69.818,34.909h139.636v69.818
		c0,3.491,2.327,8.145,5.818,10.473s8.145,2.327,11.636,0l40.727-20.945l41.891,20.945c3.491,2.327,8.145,1.164,11.636,0
		c3.491-1.164,4.655-6.982,4.655-10.473V34.909h11.636c6.982,0,11.636,4.655,11.636,11.636V384c0,6.982-4.655,11.636-11.636,11.636
		H69.818V34.909z M349.091,418.909v11.636c0,6.982-4.655,11.636-11.636,11.636H58.182c-6.982,0-11.636,4.655-11.636,11.636
		c0,6.982,4.655,11.636,11.636,11.636h279.273c4.655,0,8.145-1.164,11.636-2.327v13.964c0,6.982-4.655,11.636-11.636,11.636H58.182
		c-19.782,0-34.909-15.127-34.909-34.909s15.127-34.909,34.909-34.909h279.273c2.327,0,4.655,0,6.982-1.164c1.164,0,1.164,0,2.327,0
		c1.164,0,2.327,0,3.491-1.164v2.327H349.091z"/>
	<path style="fill:#014463;" d="M267.636,209.455H151.273c-6.982,0-11.636-4.655-11.636-11.636c0-6.982,4.655-11.636,11.636-11.636
		h116.364c6.982,0,11.636,4.655,11.636,11.636C279.273,204.8,274.618,209.455,267.636,209.455z"/>
	<path style="fill:#014463;" d="M244.364,256h-69.818c-6.982,0-11.636-4.655-11.636-11.636c0-6.982,4.655-11.636,11.636-11.636
		h69.818c6.982,0,11.636,4.655,11.636,11.636C256,251.345,251.345,256,244.364,256z"/>
</g>
<path style="fill:#F04D4E;" d="M262.982,70.982c1.164-1.164,2.327-1.164,4.655-1.164c2.327,0,3.491,0,4.655,1.164l30.255,15.127
	V23.273h-69.818v62.836L262.982,70.982z"/>
<path style="fill:#014463;" d="M314.182,116.364c-2.327,0-3.491,0-4.655-1.164l-41.891-20.945L225.745,115.2
	c-3.491,2.327-8.145,1.164-11.636,0c-2.327-2.327-4.655-6.982-4.655-10.473V11.636C209.455,4.655,214.109,0,221.091,0h93.091
	c6.982,0,11.636,4.655,11.636,11.636v93.091c0,3.491-2.327,8.145-5.818,10.473C318.836,115.2,316.509,116.364,314.182,116.364z
	 M267.636,69.818c2.327,0,3.491,0,4.655,1.164l30.255,15.127V23.273h-69.818v62.836l30.255-15.127
	C264.145,69.818,265.309,69.818,267.636,69.818z"/>
<rect x="442.182" y="128" style="fill:#FFCA5D;" width="46.545" height="267.636"/>
<path style="fill:#F04D4E;" d="M488.727,418.909h-46.545v11.636c0,6.982,4.655,11.636,11.636,11.636h23.273
	c6.982,0,11.636-4.655,11.636-11.636V418.909z"/>
<polygon style="fill:#EFC9AE;" points="451.491,104.727 479.418,104.727 465.455,80.291 "/>
<path style="fill:#014463;" d="M510.836,110.545l-34.909-58.182c-4.655-6.982-16.291-6.982-19.782,0l-34.909,58.182
	c-1.164,1.164-2.327,3.491-2.327,5.818v290.909v23.273c0,19.782,15.127,34.909,34.909,34.909h23.273
	c19.782,0,34.909-15.127,34.909-34.909v-23.273V116.364C512,114.036,510.836,111.709,510.836,110.545z M465.455,80.291
	l13.964,24.436h-29.091L465.455,80.291z M442.182,128h46.545v267.636h-46.545V128z M488.727,430.545
	c0,6.982-4.655,11.636-11.636,11.636h-23.273c-6.982,0-11.636-4.655-11.636-11.636v-11.636h46.545V430.545z"/>
<rect x="477.091" y="128" style="fill:#F5B445;" width="11.636" height="267.636"/>
<path style="fill:#DD353F;" d="M477.091,442.182c6.982,0,11.636-4.655,11.636-11.636v-11.636h-11.636V442.182z"/>
<path style="fill:#C87729;" d="M337.455,34.909h-11.636v69.818c0,3.491-2.327,8.145-5.818,10.473c-1.164,0-3.491,1.164-5.818,1.164
	s-3.491,0-4.655-1.164l-41.891-20.945L225.745,115.2c-1.164,1.164-2.327,1.164-4.655,1.164l0,0c0,3.491,2.327,8.145,5.818,10.473
	c3.491,2.327,8.145,2.327,11.636,0l40.727-20.945l41.891,20.945c1.164,1.164,2.327,1.164,4.655,1.164
	c2.327,0,4.655-1.164,5.818-1.164c3.491-2.327,5.818-5.818,5.818-10.473V384H97.745c-10.473,0-20.945,4.655-27.927,11.636h267.636
	c6.982,0,11.636-4.655,11.636-11.636V46.545C349.091,39.564,344.436,34.909,337.455,34.909z"/>
<g>
</g>
<g>
</g>
<g>
</g>
<g>
</g>
<g>
</g>
<g>
</g>
<g>
</g>
<g>
</g>
<g>
</g>
<g>
</g>
<g>
</g>
<g>
</g>
<g>
</g>
<g>
</g>
<g>
</g>
</svg>
