<?xml version="1.0" encoding="iso-8859-1"?>
<!-- Generator: Adobe Illustrator 19.0.0, SVG Export Plug-In . SVG Version: 6.00 Build 0)  -->
<svg version="1.1" id="Capa_1" xmlns="http://www.w3.org/2000/svg" xmlns:xlink="http://www.w3.org/1999/xlink" x="0px" y="0px"
	 viewBox="0 0 496 496" style="enable-background:new 0 0 496 496;" xml:space="preserve">
<path style="fill:#8C95A4;" d="M120,344H24c-8.84,0-16-7.16-16-16V56c0-8.84,7.16-16,16-16h368c8.84,0,16,7.16,16,16v272
	c0,8.84-7.16,16-16,16h-96H120z"/>
<path style="fill:#798699;" d="M24,344h96h176h96c8.84,0,16-7.16,16-16H8C8,336.84,15.16,344,24,344z"/>
<polygon style="fill:#ECECEC;" points="152,312 88,312 88,248 328,248 328,312 264,312 "/>
<path style="fill:#B6C1CE;" d="M118.736,312H152h112h33.264c-21.968-24.496-53.768-40-89.264-40S140.704,287.504,118.736,312z"/>
<circle style="fill:#FEA82F;" cx="208" cy="392" r="96"/>
<path style="fill:#FF8031;" d="M208,472c-50.32,0-91.52-38.736-95.6-88c-0.216,2.648-0.4,5.296-0.4,8c0,53.016,42.984,96,96,96
	s96-42.984,96-96c0-2.704-0.184-5.352-0.4-8C299.52,433.264,258.32,472,208,472z"/>
<polygon style="fill:#39C3FC;" points="264,72 152,72 40,72 40,216 152,216 264,216 376,216 376,72 "/>
<polygon style="fill:#ECECEC;" points="360,40 344,8 72,8 56,40 "/>
<path style="fill:#FCD770;" d="M408,320h16c8.84,0,16-7.16,16-16v-80c0-8.84-7.16-16-16-16h-16V320z"/>
<path style="fill:#AFB8C9;" d="M440,432V240c0-8.84,7.16-16,16-16l0,0c8.84,0,16,7.16,16,16v192H440z"/>
<path style="fill:#8C95A4;" d="M472,402.352c-5.072-1.512-10.44-2.352-16-2.352s-10.928,0.84-16,2.352V432h32V402.352z"/>
<circle style="fill:#FB5968;" cx="456" cy="456" r="32"/>
<g>
	<polygon style="fill:#148CE0;" points="352,72 328,216 344,216 360,216 376,216 376,72 	"/>
	<polygon style="fill:#148CE0;" points="240,72 216,216 232,216 248,216 264,216 264,72 	"/>
	<polygon style="fill:#148CE0;" points="128,72 104,216 120,216 136,216 152,216 152,72 	"/>
</g>
<polygon points="64,96 64,120 80,120 80,112 109.248,112 88.336,181.704 103.664,186.296 130.752,96 "/>
<polygon points="176,96 176,120 192,120 192,112 221.248,112 200.336,181.704 215.664,186.296 242.752,96 "/>
<polygon points="304,120 304,112 333.248,112 312.336,181.704 327.664,186.296 354.752,96 288,96 288,120 "/>
<path d="M32,224h352V64H32V224z M160,208V80h96v128H160z M368,208h-96V80h96V208z M48,80h96v128H48V80z"/>
<path d="M479.752,424H480V240c0-13.232-10.768-24-24-24c-3.16,0-6.16,0.648-8.928,1.76C444.312,207.56,435.064,200,424,200h-8V56
	c0-13.232-10.768-24-24-24h-27.056l-16-32H67.056l-16,32H24C10.768,32,0,42.768,0,56v272c0,13.232,10.768,24,24,24h88.024
	c-5.152,12.32-8.024,25.832-8.024,40c0,57.344,46.656,104,104,104c24.944,0,49.072-8.968,67.928-25.256l-10.456-12.112
	C249.512,472.416,229.112,480,208,480c-48.52,0-88-39.48-88-88s39.48-88,88-88s88,39.48,88,88c0,20.288-6.712,39.352-19.4,55.12
	l12.472,10.032C303.856,438.776,312,415.64,312,392c0-14.168-2.872-27.68-8.024-40H392c13.232,0,24-10.768,24-24h8
	c2.816,0,5.488-0.576,8-1.472V424h0.248c-9.8,7.296-16.248,18.872-16.248,32c0,22.056,17.944,40,40,40s40-17.944,40-40
	C496,442.872,489.552,431.296,479.752,424z M152,304.504V304H96v-48h224v48h-56v0.504C247.816,294.112,228.624,288,208,288
	S168.184,294.112,152,304.504z M400,328c0,4.408-3.584,8-8,8h-96v0.832c-3.808-6.056-8.192-11.696-13.128-16.832H336v-80H80v80
	h53.128c-4.936,5.128-9.32,10.776-13.128,16.832V336H24c-4.416,0-8-3.592-8-8V56c0-4.408,3.584-8,8-8h288V32H68.944l8-16h262.112
	l8,16H328v16h64c4.416,0,8,3.592,8,8V328z M424,312h-8v-96h8c4.416,0,8,3.592,8,8v16v64C432,308.408,428.416,312,424,312z M448,304
	v-64c0-4.408,3.584-8,8-8s8,3.592,8,8v176.808c-2.584-0.528-5.264-0.808-8-0.808s-5.416,0.28-8,0.808V304z M456,480
	c-13.232,0-24-10.768-24-24s10.768-24,24-24s24,10.768,24,24S469.232,480,456,480z"/>
<path d="M208,352c8.824,0,16,7.176,16,16h16c0-14.864-10.232-27.288-24-30.864V320h-16v17.136c-13.768,3.576-24,16-24,30.864
	c0,17.648,14.352,32,32,32c8.824,0,16,7.176,16,16s-7.176,16-16,16s-16-7.176-16-16h-16c0,14.864,10.232,27.288,24,30.864V464h16
	v-17.136c13.768-3.576,24-16,24-30.864c0-17.648-14.352-32-32-32c-8.824,0-16-7.176-16-16S199.176,352,208,352z"/>
<rect x="264" y="384" width="16" height="16"/>
<rect x="136" y="384" width="16" height="16"/>
<g>
</g>
<g>
</g>
<g>
</g>
<g>
</g>
<g>
</g>
<g>
</g>
<g>
</g>
<g>
</g>
<g>
</g>
<g>
</g>
<g>
</g>
<g>
</g>
<g>
</g>
<g>
</g>
<g>
</g>
</svg>
